<svg version="1.0" xmlns="http://www.w3.org/2000/svg"
 viewBox="0 0 2000.000000 509.000000"
 preserveAspectRatio="xMidYMid meet">

<g transform="translate(0.000000,509.000000) scale(0.100000,-0.100000)"
fill="#000000" stroke="none">
<path d="M1715 5073 c-3 -10 -182 -520 -396 -1133 -215 -613 -405 -1158 -424
-1210 -19 -52 -83 -237 -144 -410 -60 -173 -123 -353 -140 -400 -115 -328
-601 -1721 -601 -1725 0 -3 366 -5 814 -5 l813 0 303 872 c374 1078 341 987
352 963 6 -17 197 -749 414 -1595 25 -96 50 -190 55 -207 l11 -33 734 0 735 0
14 34 c8 19 127 357 265 752 138 396 265 757 282 804 16 47 82 234 145 415 63
182 130 373 148 425 19 52 218 623 444 1269 226 645 411 1180 411 1187 0 12
-124 14 -811 12 l-811 -3 -39 -110 c-21 -60 -81 -236 -134 -390 -53 -154 -189
-547 -301 -873 -112 -325 -204 -597 -204 -602 0 -6 -4 -10 -8 -10 -5 0 -14 24
-21 53 -8 28 -48 185 -91 347 -43 162 -142 540 -220 840 -78 300 -154 590
-169 645 l-26 100 -697 3 c-656 2 -696 1 -703 -15z"/>
<path d="M8535 5081 c-6 -10 -154 -433 -790 -2251 -218 -624 -439 -1254 -490
-1400 -301 -859 -425 -1217 -425 -1228 0 -18 1553 -18 1567 1 5 6 78 201 160
432 83 231 179 500 214 597 35 97 65 175 67 173 2 -2 59 -275 126 -607 l122
-603 814 -3 c448 -1 817 1 821 5 4 5 -53 334 -127 733 -74 399 -133 735 -132
747 2 12 84 118 183 235 782 923 1165 1378 1165 1383 0 3 -402 5 -894 5 l-895
0 -318 -372 c-175 -205 -373 -437 -440 -516 -68 -79 -123 -141 -123 -137 0 4
45 136 99 294 55 157 163 471 241 696 215 623 494 1429 564 1630 35 99 61 183
59 188 -6 11 -1561 9 -1568 -2z"/>
<path d="M6860 4980 c-113 -11 -223 -44 -350 -107 -101 -50 -126 -68 -201
-142 -145 -145 -196 -282 -186 -501 3 -63 12 -136 20 -161 52 -160 158 -277
322 -355 100 -48 209 -72 375 -85 121 -9 161 -8 240 5 320 52 546 175 669 366
60 92 82 167 88 295 6 137 -10 221 -67 342 -32 70 -54 100 -103 146 -166 157
-467 230 -807 197z"/>
<path d="M13265 3460 c-402 -22 -746 -107 -1070 -265 -390 -190 -642 -425
-855 -797 -228 -397 -323 -869 -255 -1259 32 -189 117 -410 209 -549 124 -187
360 -369 598 -460 192 -74 611 -120 1088 -120 554 0 905 68 1265 246 163 80
270 152 420 283 551 483 784 1251 603 1991 -81 331 -380 642 -746 774 -135 48
-385 102 -606 131 -102 13 -471 38 -501 33 -5 0 -73 -4 -150 -8z m254 -1071
c65 -29 107 -64 137 -115 l26 -45 -5 -177 c-4 -124 -11 -204 -25 -267 -59
-261 -182 -473 -359 -615 -85 -69 -127 -83 -238 -84 -95 -1 -155 24 -222 90
-95 95 -99 280 -13 570 78 259 157 420 258 523 133 135 303 181 441 120z"/>
<path d="M18690 3334 c-14 -2 -65 -9 -115 -15 -338 -42 -675 -183 -964 -402
-58 -44 -101 -71 -97 -61 43 110 166 434 166 438 0 4 -366 6 -813 6 l-814 0
-106 -302 c-59 -167 -132 -375 -163 -463 -31 -88 -73 -209 -94 -270 -21 -60
-174 -497 -340 -970 -166 -473 -321 -915 -345 -983 l-43 -122 817 2 816 3 111
315 c60 173 165 470 232 660 66 190 138 392 158 450 51 145 87 214 147 277 65
68 149 110 251 123 156 20 255 -25 302 -139 22 -53 29 -150 14 -212 -7 -29
-125 -370 -262 -758 -136 -387 -248 -708 -248 -713 0 -4 354 -7 786 -6 l787 3
34 100 c19 55 183 525 364 1044 214 614 337 980 350 1045 17 84 20 126 16 246
-5 167 -19 227 -79 349 -77 160 -233 281 -425 332 -61 17 -115 22 -248 24 -93
2 -181 2 -195 -1z"/>
<path d="M5827 3258 c-9 -24 -61 -171 -116 -328 -160 -458 -706 -2017 -781
-2230 -38 -107 -94 -266 -124 -353 l-55 -157 773 0 774 0 45 128 c57 158 979
2786 1018 2900 l28 82 -773 0 -773 0 -16 -42z"/>
<path d="M19574 826 c-278 -91 -300 -479 -34 -605 46 -22 69 -26 140 -26 73 0
92 4 137 28 66 34 116 84 150 150 24 45 28 63 28 142 0 75 -4 98 -24 140 -32
64 -100 131 -159 157 -58 26 -180 34 -238 14z m222 -54 c137 -70 196 -216 144
-356 -81 -215 -376 -249 -500 -57 -102 160 -33 360 147 427 53 20 157 13 209
-14z"/>
<path d="M19555 688 c-3 -8 -4 -90 -3 -183 3 -168 3 -170 26 -173 21 -3 22 -1
22 82 l0 86 40 0 c39 0 42 -3 79 -62 59 -95 70 -108 91 -108 29 0 25 14 -20
80 -57 84 -57 86 -16 100 20 6 43 21 51 33 23 33 19 91 -9 124 -24 27 -27 28
-140 31 -91 3 -117 1 -121 -10z m230 -52 c19 -29 11 -72 -15 -86 -10 -6 -53
-10 -94 -10 l-76 0 0 60 0 60 85 0 c78 0 86 -2 100 -24z"/>
</g>
</svg>
